<?xml version="1.0" encoding="utf-8"?>
<!-- Generator: Adobe Illustrator 27.4.1, SVG Export Plug-In . SVG Version: 6.00 Build 0)  -->
<svg version="1.1" id="Lag_1" xmlns="http://www.w3.org/2000/svg" xmlns:xlink="http://www.w3.org/1999/xlink" x="0px" y="0px"
	 viewBox="0 0 608 827" style="enable-background:new 0 0 608 827;" xml:space="preserve">
<style type="text/css">
	.st0{fill:#A35F26;}
	.st1{fill:#646464;}
	.st2{fill:#A8A8A8;}
	.st3{fill:#DD833D;}
	.st4{fill:#72B62B;}
	.st5{fill:none;stroke:#AE5B23;stroke-miterlimit:10;}
	.st6{fill:#E4E1E1;}
	.st7{fill:#F9CCAD;stroke:#AE5B23;stroke-miterlimit:10;}
	.st8{fill:#AE5B23;}
	.st9{fill:none;}
	.st10{fill:#020203;}
	.st11{font-family:'ChelseaMarketScript-Regular';}
	.st12{font-size:65.1262px;}
</style>
<path class="st0" d="M423.24,327.32c-0.93,1.15-6.72,8.08-16.34,8.31c-10.22,0.25-16.5-7.25-17.36-8.31c0-72.61,0-145.22,0-217.83
	h33.7V327.32z"/>
<path class="st1" d="M343.59,122.25c4.85-4.44,17.23-14.48,34.21-14.41c4.43,0.02,8.38,0.72,11.74,1.66
	c2.66,1.74,10.32,6.2,20.42,4.99c6.11-0.73,10.68-3.25,13.27-4.99c2.21,0,4.42,0,6.64,0c7.44,9.13,18.79,12.4,28.08,8.31
	c11.06-4.87,13.8-17.79,14.3-20.51c0.39-2.11,3.35-19.71-7.66-26.6c-7-4.38-16.87-2.71-24,4.43c-3.99,2.11-10.08,4.5-17.36,3.88
	c-2.65-0.23-4.48-0.77-7.66-1.66c-4.86-1.37-11.94-3.3-20.93-5.54c-3.33-3.01-10.94-8.94-21.44-9.42
	c-14.99-0.68-29.66,10.03-37.27,27.16c7.98-3.95,20.78-8.5,35.74-6.1c2.54,0.41,4.92,0.98,7.15,1.66
	c-4.01,0.33-10.65,1.51-17.36,6.1C346.76,101.25,344.02,119.17,343.59,122.25z"/>
<path class="st2" d="M446.28,70.87c0.96-0.51,10.18-5.26,18.32-0.17c9.28,5.8,8.79,19.15,8.68,22.17
	c-0.09,2.52-0.88,15.5-11.28,22.57c-8.97,6.09-18.44,3.27-19.99,2.78c-1.56-2.6-6.75-11.95-5.5-24.79
	C437.73,80.96,444.25,73.13,446.28,70.87z"/>
<path class="st3" d="M255.78,533.51c-0.58,3.03-1.62,7.33-3.57,12.19c-2.66,6.6-5.26,13.06-8.68,13.86
	c-7.82,1.82-18.92-26.17-19.62-27.97c-2.07-14.1-3.87-29.38-5.18-45.73c-1.86-23.09-0.79-25.26-2.26-52.12
	c-2.08-37.83-4.89-47.58-3.06-73.16c0.92-12.82,2.81-26.99,11.49-40.31c2.89-4.44,11.14-17.1,20.17-15.67
	c2.33,0.37,7.29,2.08,13.53,15.67c9.51,20.7,9.13,40.88,8.93,47.52c-1.01,34.53-2.47,46.28-3.57,70.95
	C263.95,438.73,260.9,506.69,255.78,533.51z"/>
<path class="st4" d="M240.2,312.36c0.28,2.04,0.95,5.18,2.81,8.31c5.83,9.78,17.74,10.08,25.02,12.75
	c8.65,3.18,19.54,12.93,27.57,43.23c1.06-7.16,2.24-22.18-5.11-37.14c-1.88-3.84-4.02-7.05-6.13-9.7
	c1.41-6.55,3.63-10.34,6.64-11.36c7.92-2.69,21.37,13.75,40.34,49.33c-9.09-36.48-27.68-59.78-44.42-58.75
	c-3.33,0.2-7.92,1.45-13.27,6.1c-0.12-2.22-0.01-6.48,2.55-9.98c0,0,1.74-2.38,4.71-3.79c5.6-2.66,30.05,6.64,61.67,23.19
	c-27-31.08-61.09-42.96-84.24-30.48C253.44,296.7,246.46,301.81,240.2,312.36z"/>
<path class="st5" d="M217.48,371.11c4.9,2.25,13.95,5.56,25.49,4.9c8.4-0.48,15.09-2.89,19.44-4.9"/>
<path class="st5" d="M224.12,432.07c2.76,1.76,10.12,5.89,19.91,5c6.64-0.6,11.6-3.26,14.3-5"/>
<path class="st6" d="M278.07,499.98h37.27c4.66-8.02,14.52-27.39,14.92-54.3c0.43-28.88-10.3-49.7-14.92-57.66
	c-12.42,0-24.85,0-37.27,0c4.61,7.71,16.06,29.05,15.32,58.75C292.73,473.2,282.77,492.13,278.07,499.98z"/>
<path class="st6" d="M362.04,285.75h-37.27c-4.66-8.02-14.52-27.39-14.92-54.3c-0.43-28.88,10.3-49.7,14.92-57.66
	c12.42,0,24.85,0,37.27,0c-4.61,7.71-16.06,29.05-15.32,58.75C347.38,258.98,357.33,277.91,362.04,285.75z"/>
<path class="st2" d="M315.62,499.98c78.97,0,157.94,0,236.91,0c4.48-5.85,17.18-23.98,18.38-50.99
	c1.42-32.13-14.44-54.13-18.38-59.31c-79.48-0.55-158.96-1.11-238.44-1.66c4.85,8.61,13.69,26.95,14.81,52.1
	C330.2,469.46,320.23,491.21,315.62,499.98z"/>
<path class="st2" d="M326.24,285.75c-78.97,0-157.94,0-236.91,0c-4.48-5.85-17.18-23.98-18.38-50.99
	c-1.42-32.13,14.44-54.13,18.38-59.31c79.48-0.55,158.96-1.11,238.44-1.66c-4.85,8.61-13.69,26.95-14.81,52.1
	C311.66,255.24,321.63,276.99,326.24,285.75z"/>
<path class="st7" d="M362.04,173.79c7.22-3.8,20.48-9.26,36.7-7.21c4.38,0.56,8.31,1.58,11.74,2.77c0.68,4.8,1.36,9.61,2.04,14.41
	c3.16,0.3,8.1,0.71,14.17,0.97c15.9,0.68,18.58-0.58,23.17,2.18c8.62,5.2,10.91,16.77,11.39,19.23c0.38,1.92,1.38,8.31-0.73,14.76
	c-0.39,1.2-1.21,3.19-2.9,5.09c-2.17,2.44-4.6,3.4-5.78,3.78c1.29,0.33,3.35,1.06,5.39,2.77c2.75,2.31,3.91,5.12,4.69,7.07
	c2.01,5.02,1.7,9.48,1.63,10.39c-0.6,7.37-4.68,12.02-6.09,13.58c-1.69,1.87-3.38,3.11-4.6,3.88c0.85,1.66,1.7,3.33,2.55,4.99
	c1.64,2.52,1.87,5.82,0.57,8.52c-1.88,3.92-5.88,4.34-6.13,4.36c-0.14,0.84-0.35,2.14-0.57,3.74c-0.57,4.13-0.38,5.08-1.02,6.1
	c-1.99,3.16-5.37,3.32-5.72,3.33c-4.99-0.38-12.58-0.79-21.86-0.55c-20.93,0.53-29.44,3.82-41.36-0.55
	c-4.46-1.64-10.67-4.81-17.3-11.64c-4.78-6.53-16.33-24.13-17.93-49.88C342.04,202.73,357.91,179.49,362.04,173.79z"/>
<path class="st7" d="M397.4,282.22c-0.24,0.24-4.63,4.76-3.45,10.91c0.78,4.05,3.48,6.29,4.21,6.86c4.75,2.54,11.14,5.25,18.95,6.76
	c15.23,2.93,27.83-0.3,34.72-2.7c0.96-1.59,2.85-5.22,3.1-10.29c0.21-4.49-0.98-7.94-1.69-9.65c-10.54,5.03-19.69,6.5-25.59,6.95
	c-6.93,0.53-14.35,1-22.43-3.2C401.71,286.02,399.11,283.85,397.4,282.22z"/>
<path class="st8" d="M239.95,102.29"/>
<path class="st5" d="M366.57,205.94c6.7-8.82,14.37-13.03,18.94-10.6c0.85,0.45,1.82,1.26,2.7,2.76
	c0.99,3.06,5.04,14.33,15.64,19.48c5.85,2.84,16.94,5.39,21.95-0.55c0.25-0.3,1.55-1.88,2.11-4.47c1.31-6.06-2.4-13.17-9.25-18.26
	c-1.42-1.5-3.15-3.69-4.6-6.65c-0.67-1.38-1.16-2.69-1.53-3.88"/>
<path class="st5" d="M387.92,198.67c-2.44,0.78-6.3,2.5-8.62,6.44c-4.78,8.12,0.53,19.64,2.58,23c8.38,13.75,36.63,13.63,69.95,1.66
	"/>
<path class="st5" d="M452.86,267.46c-7.39,1.86-13.53,2.76-17.93,3.24c-2.79,0.3-5.03,0.45-8.11,0.65
	c-8.06,0.53-15.68,0.67-22.78,0.55c-1-0.02-10.08-1.49-14.28-7.32c-4.61-6.38-3.45-18.24,3.77-28.06"/>
<path class="st5" d="M396.13,269.59c-0.25,1.86-0.92,8.48,2.99,13.67c2.52,3.36,5.8,4.57,9.32,5.82c5.78,2.05,10.83,2.08,14.81,1.87
	c6.03-0.32,15.28-1.48,26.61-5.61"/>
<path class="st7" d="M278.07,499.98c6.13-7.3,17.52-22.88,22.64-46.28c6.86-31.36-1.89-56.85-5.36-65.68
	c-8.23-5.15-21.31-11.75-38.29-14.13c-31.52-4.41-55.95,8.59-65.1,14.13c-11.33,5.43-16.22,17.83-13.02,26.6
	c2.97,8.14,11.95,10.54,13.02,10.81c-8.47,2.09-12.65,10.69-10.72,16.63c1.34,4.14,5.68,7.11,10.72,7.48
	c-6.26,2.12-10.07,8.66-9.19,14.97c0.7,5.05,4.33,9.31,9.19,10.81c-8.12,6.04-9.31,16.59-5.36,21.62c2.66,3.38,7.77,4.41,12.72,3.05
	C225.56,499.98,251.82,499.98,278.07,499.98z"/>
<path class="st5" d="M220.67,385.11c-1.01,1.72-4.23,7.71-3.06,15.38c0.57,3.77,2,6.6,3.06,8.31"/>
<path class="st5" d="M220.67,422.94c-0.89,1.92-2.44,5.93-2.3,11.22c0.12,4.53,1.44,7.98,2.3,9.84"/>
<path class="st5" d="M220.67,452.03c-0.67,1.93-1.48,4.95-1.53,8.73c-0.06,4.2,0.83,7.54,1.53,9.56"/>
<path class="st5" d="M220.67,478.64c-0.59,1.24-1.67,3.93-1.53,7.48c0.11,2.87,0.96,5.05,1.53,6.24"/>
<rect x="142.41" y="195.69" class="st9" width="153.21" height="85.82"/>
<text transform="matrix(0.9212 0 0 1 142.4121 256.5112)" class="st10 st11 st12">Lån</text>
<rect x="356.33" y="408.6" class="st9" width="172.44" height="70.79"/>
<text transform="matrix(0.9212 0 0 1 356.3262 469.4277)" class="st10 st11 st12">Lokalt</text>
</svg>
